P3
58 11
50
0 0 0 50 00 00 50    00 00 50 00 00    50 00 00 50 00 00        0 0 0 0 0 0 50 50 00 50 50 00 50 50 00 50 50 00 50 50 00 0 0 0 0 0 0 0 0 0 0 0 0 00 50 00 00 50 00 0 0 0 0 0 0 0 0 0 0 0 0 0 0 0 00 50 50 00 50 50 00 50 50 0 0 0 0 0 0 0 0 0 0 0 0 0 0 0 00 00 50 00 00 50 0 0 0 0 0 0 0 0 0 50 00 50 50 00 50 0 0 0 0 0 0 0 0 0 0 0 0 0 0 0 0 0 0 0 0 0 35 35 35 35 35 35 0 0 0 0 0 0 0 0 0 20 20 20 20 20 20 20 20 20 20 20 20 20 20 20 0 0 0 0 0 0
0 0 0 50 00 00 50 00 00 0 0 0 0 0 0 0 0 0 50 00 00 0 0 0 50 50 00 50 50 00 0 0 0 0 0 0 0 0 0 50 50 00 0 0 0 0 0 0 0 0 0 00 50 00 00 50 00 0 0 0 0 0 0 0 0 0 0 0 0 0 0 0 00 50 50 00 50 50 00 50 50 00 50 50 00 50 50 0 0 0 0 0 0 0 0 0 00 00 50 00 00 50 0 0 0 0 0 0 0 0 0 50 00 50 50 00 50 0 0 0 0 0 0 0 0 0 0 0 0 0 0 0 0 0 0 0 0 0 35 35 35 35 35 35 0 0 0 0 0 0 0 0 0 20 20 20 20 20 20 0 0 0 0 0 0 0 0 0 20 20 20 0 0 0
0 0 0 50 00 00 50 00 00 0 0 0 0 0 0 0 0 0 50 00 00 0 0 0 50 50 00 50 50 00 0 0 0 0 0 0 0 0 0 50 50 00 0 0 0 0 0 0 00 50 00 0 0 0 0 0 0 00 50 00 0 0 0 0 0 0 0 0 0 00 50 50 0 0 0 0 0 0 0 0 0 00 50 50 00 50 50 0 0 0 0 0 0 00 00 50 0 0 0 0 0 0 00 00 50 0 0 0 0 0 0 50 00 50 50 00 50 0 0 0 0 0 0 0 0 0 0 0 0 0 0 0 0 0 0 35 35 35 0 0 0 0 0 0 35 35 35 0 0 0 0 0 0 20 20 20 20 20 20 0 0 0 0 0 0 0 0 0 20 20 20 0 0 0
0 0 0 50 00 00 50 00 00 0 0 0 0 0 0 0 0 0 50 00 00 0 0 0 50 50 00 50 50 00 0 0 0 0 0 0 0 0 0 50 50 00 0 0 0 00 50 00 00 50 00 0 0 0 0 0 0 00 50 00 00 50 00 0 0 0 00 50 50 00 50 50 0 0 0 0 0 0 0 0 0 0 0 0 0 0 0 0 0 0 00 00 50 00 00 50 0 0 0 0 0 0 00 00 50 00 00 50 0 0 0 50 00 50 50 00 50 0 0 0 0 0 0 0 0 0 0 0 0 0 0 0 35 35 35 35 35 35 0 0 0 0 0 0 35 35 35 35 35 35 0 0 0 20 20 20 20 20 20 0 0 0 0 0 0 0 0 0 20 20 20 0 0 0
0 0 0 50 00 00 50 00 00 50 00 00 50 00 00 50 00 00 0 0 0 0 0 0 50 50 00 50 50 00 50 50 00 50 50 00 50 50 00 0 0 0 0 0 0 00 50 00 00 50 00 0 0 0 0 0 0 00 50 00 00 50 00 0 0 0 00 50 50 00 50 50 0 0 0 0 0 0 0 0 0 0 0 0 0 0 0 0 0 0 00 00 50 00 00 50 0 0 0 0 0 0 00 00 50 00 00 50 0 0 0 50 00 50 50 00 50 0 0 0 0 0 0 0 0 0 0 0 0 0 0 0 35 35 35 35 35 35 0 0 0 0 0 0 35 35 35 35 35 35 0 0 0 20 20 20 20 20 20 20 20 20 20 20 20 20 20 20 0 0 0 0 0 0
0 0 0 50 00 00 50 00 00 0 0 0 0 0 0 0 0 0 0 0 0 0 0 0 50 50 00 50 50 00 0 0 0 50 50 00 0 0 0 0 0 0 0 0 0 00 50 00 00 50 00 0 0 0 0 0 0 00 50 00 00 50 00 0 0 0 00 50 50 00 50 50 0 0 0 0 0 0 00 50 50 00 50 50 00 50 50 0 0 0 00 00 50 00 00 50 0 0 0 0 0 0 00 00 50 00 00 50 0 0 0 50 00 50 50 00 50 0 0 0 0 0 0 0 0 0 0 0 0 0 0 0 35 35 35 35 35 35 0 0 0 0 0 0 35 35 35 35 35 35 0 0 0 20 20 20 20 20 20 0 0 0 0 0 0 0 0 0 0 0 0 0 0 0
0 0 0 50 00 00 50 00 00 0 0 0 0 0 0 0 0 0 0 0 0 0 0 0 50 50 00 50 50 00 0 0 0 0 0 0 50 50 00 0 0 0 0 0 0 00 50 00 00 50 00 0 0 0 0 0 0 00 50 00 00 50 00 0 0 0 00 50 50 00 50 50 0 0 0 0 0 0 00 50 50 00 50 50 00 50 50 0 0 0 00 00 50 00 00 50 00 00 50 00 00 50 00 00 50 00 00 50 0 0 0 50 00 50 50 00 50 0 0 0 0 0 0 0 0 0 0 0 0 0 0 0 35 35 35 35 35 35 35 35 35 35 35 35 35 35 35 35 35 35 0 0 0 20 20 20 20 20 20 0 0 0 0 0 0 0 0 0 0 0 0 0 0 0
0 0 0 50 00 00 50 00 00 0 0 0 0 0 0 0 0 0 0 0 0 0 0 0 50 50 00 50 50 00 0 0 0 0 0 0 50 50 00 0 0 0 0 0 0 00 50 00 00 50 00 0 0 0 0 0 0 00 50 00 00 50 00 0 0 0 00 50 50 00 50 50 0 0 0 0 0 0 0 0 0 00 50 50 0 0 0 0 0 0 00 00 50 00 00 50 00 00 50 00 00 50 00 00 50 00 00 50 0 0 0 50 00 50 50 00 50 0 0 0 0 0 0 0 0 0 0 0 0 0 0 0 35 35 35 35 35 35 35 35 35 35 35 35 35 35 35 35 35 35 0 0 0 20 20 20 20 20 20 0 0 0 0 0 0 0 0 0 0 0 0 0 0 0
0 0 0 50 00 00 50 00 00 0 0 0 0 0 0 0 0 0 0 0 0 0 0 0 50 50 00 50 50 00 0 0 0 0 0 0 0 0 0 50 50 00 0 0 0 0 0 0 00 50 00 0 0 0 0 0 0 00 50 00 0 0 0 0 0 0 0 0 0 00 50 50 0 0 0 0 0 0 0 0 0 00 50 50 0 0 0 0 0 0 00 00 50 00 00 50 0 0 0 0 0 0 00 00 50 00 00 50 0 0 0 50 00 50 50 00 50 0 0 0 0 0 0 0 0 0 0 0 0 0 0 0 35 35 35 35 35 35 0 0 0 0 0 0 35 35 35 35 35 35 0 0 0 20 20 20 20 20 20 0 0 0 0 0 0 0 0 0 0 0 0 0 0 0
0 0 0 50 00 00 50 00 00 0 0 0 0 0 0 0 0 0 0 0 0 0 0 0 50 50 00 50 50 00 0 0 0 0 0 0 0 0 0 50 50 00 0 0 0 0 0 0 0 0 0 00 50 00 00 50 00 0 0 0 0 0 0 0 0 0 0 0 0 0 0 0 00 50 50 00 50 50 00 50 50 0 0 0 0 0 0 0 0 0 00 00 50 00 00 50 0 0 0 0 0 0 00 00 50 00 00 50 0 0 0 50 00 50 50 00 50 50 00 50 50 00 50 50 00 50 50 00 50 0 0 0 35 35 35 35 35 35 0 0 0 0 0 0 35 35 35 35 35 35 0 0 0 20 20 20 20 20 20 0 0 0 0 0 0 0 0 0 0 0 0 0 0 0
0 0 0 50 00 00 50 00 00 0 0 0 0 0 0 0 0 0 0 0 0 0 0 0 50 50 00 50 50 00 0 0 0 0 0 0 0 0 0 50 50 00 0 0 0 0 0 0 0 0 0 00 50 00 00 50 00 0 0 0 0 0 0 0 0 0 0 0 0 0 0 0 00 50 50 00 50 50 00 50 50 0 0 0 0 0 0 0 0 0 00 00 50 00 00 50 0 0 0 0 0 0 00 00 50 00 00 50 0 0 0 50 00 50 50 00 50 50 00 50 50 00 50 50 00 50 50 00 50 0 0 0 35 35 35 35 35 35 0 0 0 0 0 0 35 35 35 35 35 35 0 0 0 20 20 20 20 20 20 0 0 0 0 0 0 0 0 0 0 0 0 0 0 0
