P2
58 11
50
0 50 50 50 50 50 0 0 45 45 45 45 45 0 0 0 0 40 40 0 0 0 0 0 35 35 35 0 0 0 0 0 30 30 0 0 0 25 25 0 0 0 0 0 0 0 20 20 0 0 0 15 15 15 15 15 0 0
0 50 50 0 0 0 50 0 45 45 0 0 0 45 0 0 0 40 40 0 0 0 0 0 35 35 35 35 35 0 0 0 30 30 0 0 0 25 25 0 0 0 0 0 0 0 20 20 0 0 0 15 15 0 0 0 15 0
0 50 50 0 0 0 50 0 45 45 0 0 0 45 0 0 40 0 0 40 0 0 0 35 0 0 0 35 35 0 0 30 0 0 30 0 0 25 25 0 0 0 0 0 0 20 0 0 20 0 0 15 15 0 0 0 15 0
0 50 50 0 0 0 50 0 45 45 0 0 0 45 0 40 40 0 0 40 40 0 35 35 0 0 0 0 0 0 30 30 0 0 30 30 0 25 25 0 0 0 0 0 20 20 0 0 20 20 0 15 15 0 0 0 15 0
0 50 50 50 50 50 0 0 45 45 45 45 45 0 0 40 40 0 0 40 40 0 35 35 0 0 0 0 0 0 30 30 0 0 30 30 0 25 25 0 0 0 0 0 20 20 0 0 20 20 0 15 15 15 15 15 0 0
0 50 50 0 0 0 0 0 45 45 0 45 0 0 0 40 40 0 0 40 40 0 35 35 0 0 35 35 35 0 30 30 0 0 30 30 0 25 25 0 0 0 0 0 20 20 0 0 20 20 0 15 15 0 0 0 0 0
0 50 50 0 0 0 0 0 45 45 0 0 45 0 0 40 40 0 0 40 40 0 35 35 0 0 35 35 35 0 30 30 30 30 30 30 0 25 25 0 0 0 0 0 20 20 20 20 20 20 0 15 15 0 0 0 0 0
0 50 50 0 0 0 0 0 45 45 0 0 45 0 0 40 40 0 0 40 40 0 35 35 0 0 0 35 0 0 30 30 30 30 30 30 0 25 25 0 0 0 0 0 20 20 20 20 20 20 0 15 15 0 0 0 0 0
0 50 50 0 0 0 0 0 45 45 0 0 0 45 0 0 40 0 0 40 0 0 0 35 0 0 0 35 0 0 30 30 0 0 30 30 0 25 25 0 0 0 0 0 20 20 0 0 20 20 0 15 15 0 0 0 0 0
0 50 50 0 0 0 0 0 45 45 0 0 0 45 0 0 0 40 40 0 0 0 0 0 35 35 35 0 0 0 30 30 0 0 30 30 0 25 25 25 25 25 25 0 20 20 0 0 20 20 0 15 15 0 0 0 0 0
0 50 50 0 0 0 0 0 45 45 0 0 0 45 0 0 0 40 40 0 0 0 0 0 35 35 35 0 0 0 30 30 0 0 30 30 0 25 25 25 25 25 25 0 20 20 0 0 20 20 0 15 15 0 0 0 0 0
